<svg xmlns="http://www.w3.org/2000/svg" width="32" height="32" viewBox="0 0 32 32">
    <g fill="none">
        <path d="M0 0H32V32H0z"/>
        <path fill="#FFF" d="M16 7.865c2.172 0 3.94 1.812 3.94 4.04 0 2.229-1.768 4.041-3.94 4.041-2.172 0-3.94-1.812-3.94-4.04 0-2.229 1.768-4.04 3.94-4.04M6 26h1.819c0-4.507 3.67-8.174 8.181-8.174 4.511 0 8.181 3.667 8.181 8.174H26c0-4.302-2.71-7.98-6.505-9.406 1.374-1.08 2.263-2.78 2.263-4.688C21.758 8.649 19.175 6 16 6c-3.174 0-5.758 2.649-5.758 5.906 0 1.909.89 3.608 2.263 4.688C8.71 18.021 6 21.698 6 26"/>
    </g>
</svg>
