<svg xmlns="http://www.w3.org/2000/svg" width="20" height="20" viewBox="0 0 20 20">
    <g fill="none" fill-rule="evenodd">
        <g fill="#FFF">
            <g>
                <g>
                    <g>
                        <g>
                            <path d="M10 3.712c-4.545 0-8.427 2.707-10 6.528 1.573 3.82 5.455 6.527 10 6.527s8.427-2.707 10-6.527c-1.573-3.821-5.455-6.528-10-6.528m0 4.352c1.255 0 2.273.975 2.273 2.176 0 1.2-1.018 2.175-2.273 2.175-1.255 0-2.273-.974-2.273-2.175 0-1.201 1.018-2.176 2.273-2.176m0-2.611c3.445 0 6.518 1.854 8.018 4.787-1.5 2.932-4.563 4.786-8.018 4.786-3.455 0-6.518-1.854-8.018-4.786C3.482 7.307 6.555 5.453 10 5.453" transform="translate(-269 -7055) translate(149 6522) translate(0 487) translate(0 46) translate(120)"/>
                        </g>
                    </g>
                </g>
            </g>
        </g>
    </g>
</svg>
