<svg xmlns="http://www.w3.org/2000/svg" width="20" height="20" viewBox="0 0 20 20">
    <g fill="none" fill-rule="evenodd">
        <g fill="#FFF">
            <g>
                <g>
                    <path d="M10 7.667c1.255 0 2.273 1.045 2.273 2.333 0 1.288-1.018 2.333-2.273 2.333-1.255 0-2.273-1.045-2.273-2.333 0-1.288 1.018-2.333 2.273-2.333M10 3C5.455 3 1.573 5.903 0 10c1.573 4.097 5.455 7 10 7s8.427-2.903 10-7c-1.573-4.097-5.455-7-10-7m0 1.867c3.445 0 6.518 1.988 8.018 5.133-1.5 3.145-4.563 5.133-8.018 5.133-3.455 0-6.518-1.988-8.018-5.133C3.482 6.855 6.555 4.867 10 4.867" transform="translate(-928 -473) translate(480 459) translate(448 14)"/>
                </g>
            </g>
        </g>
    </g>
</svg>
