<svg xmlns="http://www.w3.org/2000/svg" width="20" height="20" viewBox="0 0 20 20">
    <g fill="none" fill-rule="evenodd">
        <g fill="#FFF">
            <g>
                <g>
                    <g>
                        <g>
                            <path d="M2.624 2l6.507 6.229 2.97 2.843H12.1l5.952 5.697L16.766 18l-2.271-2.176c-1.367.605-2.89.943-4.495.943-4.545 0-8.427-2.707-10-6.527.775-1.883 2.11-3.494 3.809-4.646l-2.47-2.363L2.623 2zm-.642 8.24c1.5 2.932 4.563 4.786 8.018 4.786 1.088 0 2.136-.184 3.11-.527l-2.319-2.22c-.246.088-.513.136-.791.136-1.255 0-2.273-.974-2.273-2.175 0-.267.05-.522.142-.758L5.11 6.84c-1.318.825-2.405 1.987-3.127 3.4zM10 3.712c4.545 0 8.427 2.707 10 6.528-.557 1.353-1.404 2.567-2.468 3.57l-1.277-1.222c.71-.67 1.308-1.46 1.763-2.348-1.5-2.933-4.573-4.787-8.018-4.787-.381 0-.757.023-1.128.067l-1.55-1.485c.855-.21 1.753-.323 2.678-.323z" transform="translate(-229 -7055) translate(149 6522) translate(0 487) translate(0 46) translate(80)"/>
                        </g>
                    </g>
                </g>
            </g>
        </g>
    </g>
</svg>
