<svg width="20" height="20" viewBox="0 0 20 20" fill="none" xmlns="http://www.w3.org/2000/svg">
<path d="M10 -4.37114e-07C11.9778 -5.23567e-07 13.9112 0.58649 15.5557 1.6853C17.2002 2.78412 18.4819 4.3459 19.2388 6.17316C19.9957 8.00043 20.1937 10.0111 19.8079 11.9509C19.422 13.8907 18.4696 15.6725 17.0711 17.0711C15.6725 18.4696 13.8907 19.422 11.9509 19.8079C10.0111 20.1937 8.00043 19.9957 6.17317 19.2388C4.3459 18.4819 2.78412 17.2002 1.6853 15.5557C0.586489 13.9112 -3.74246e-07 11.9778 -4.37114e-07 10L4 10C4 11.1867 4.35189 12.3467 5.01118 13.3334C5.67047 14.3201 6.60754 15.0892 7.7039 15.5433C8.80026 15.9974 10.0067 16.1162 11.1705 15.8847C12.3344 15.6532 13.4035 15.0818 14.2426 14.2426C15.0818 13.4035 15.6532 12.3344 15.8847 11.1705C16.1162 10.0067 15.9974 8.80026 15.5433 7.7039C15.0892 6.60754 14.3201 5.67047 13.3334 5.01118C12.3467 4.35189 11.1867 4 10 4L10 -4.37114e-07Z" fill="#DCDCE3"/>
</svg>
