<svg xmlns="http://www.w3.org/2000/svg" width="159" height="44" viewBox="0 0 159 44">
    <g fill="none">
        <path fill="#FFF" d="M86.545 15.008c2.255 0 4.008.743 5.258 2.228 1.191 1.415 1.815 3.412 1.872 5.99l.004.391v1.235H81.927l.006.17c.07 1.632.568 2.957 1.493 3.974.957 1.053 2.173 1.58 3.648 1.58 1.047 0 1.934-.214 2.661-.642.636-.374 1.202-.854 1.7-1.441l.208-.258 1.812 1.41-.082.124c-1.453 2.152-3.606 3.227-6.46 3.227-2.351 0-4.264-.772-5.74-2.316-1.404-1.471-2.14-3.415-2.207-5.83l-.005-.367v-.545l.002-.214c.026-1.634.354-3.1.984-4.395.657-1.352 1.577-2.41 2.758-3.175 1.18-.764 2.46-1.146 3.84-1.146zm14.94-3.88v4.2h3.239v2.293h-3.239V28.38l.006.225c.028.583.17 1.03.427 1.338.289.348.78.521 1.475.521.342 0 .813-.064 1.411-.192v2.405l-.388.098c-.645.148-1.274.222-1.889.222-1.325 0-2.324-.4-2.998-1.202-.673-.802-1.01-1.94-1.01-3.415V17.621h-3.158V15.33h3.158v-4.201h2.966zm33.776 3.88c1.946 0 3.562.582 4.85 1.747 1.288 1.165 1.975 2.678 2.06 4.538h-2.805l-.026-.256c-.127-1.007-.544-1.844-1.249-2.51-.764-.721-1.707-1.082-2.83-1.082-1.507 0-2.674.542-3.503 1.627-.828 1.085-1.242 2.654-1.242 4.706v.56l.004.37c.049 1.82.459 3.236 1.23 4.248.823 1.08 1.999 1.62 3.527 1.62 1.058 0 1.983-.321 2.774-.962.79-.642 1.23-1.443 1.315-2.405h2.805l-.021.27c-.097.895-.431 1.751-1.005 2.567-.63.898-1.472 1.614-2.525 2.149-1.053.534-2.167.801-3.343.801-2.362 0-4.24-.788-5.635-2.364-1.395-1.577-2.092-3.733-2.092-6.47v-.496l.006-.419c.047-1.52.355-2.882.924-4.087.62-1.314 1.51-2.335 2.669-3.062 1.16-.727 2.53-1.09 4.112-1.09zm16.881 0c1.967 0 3.562.508 4.786 1.523 1.224 1.015 1.836 2.314 1.836 3.896h-2.983l-.007-.2c-.052-.728-.395-1.361-1.027-1.9-.689-.588-1.557-.882-2.605-.882-1.08 0-1.924.235-2.533.705-.61.47-.914 1.085-.914 1.844 0 .716.283 1.256.85 1.62.566.363 1.59.71 3.07 1.041 1.48.332 2.68.727 3.6 1.187.919.46 1.6 1.013 2.043 1.66.444.646.666 1.434.666 2.364 0 1.55-.62 2.792-1.86 3.728-1.24.935-2.848 1.402-4.826 1.402-1.39 0-2.618-.245-3.687-.737-1.07-.492-1.905-1.178-2.51-2.06-.603-.882-.905-1.836-.905-2.862h2.966l.018.226c.099.888.49 1.601 1.176 2.139.743.582 1.724.874 2.942.874 1.123 0 2.023-.228 2.702-.682.678-.454 1.018-1.06 1.018-1.82 0-.801-.302-1.424-.906-1.867-.604-.444-1.657-.826-3.158-1.147-1.502-.32-2.694-.705-3.576-1.154-.881-.449-1.533-.983-1.956-1.603-.422-.62-.633-1.358-.633-2.213 0-1.421.601-2.624 1.804-3.607 1.202-.983 2.739-1.475 4.61-1.475zm-82.704 0c3.805 0 5.74 2.015 5.804 6.044v11.624h-2.966V21.229l-.006-.281c-.04-1.1-.321-1.934-.844-2.501-.567-.615-1.518-.922-2.854-.922-1.1 0-2.015.329-2.742.986-.726.657-1.149 1.542-1.266 2.653v11.512h-2.982V21.309l-.004-.24c-.077-2.363-1.31-3.544-3.7-3.544-1.945 0-3.276.828-3.992 2.485v12.666H50.92V15.329h2.806l.08 1.923.194-.218c1.25-1.35 2.901-2.026 4.952-2.026 2.427 0 4.078.93 4.955 2.79.577-.834 1.328-1.507 2.252-2.02.925-.514 2.018-.77 3.279-.77zm46.522 0c.577 0 1.015.075 1.314.224v2.758l-.343-.05c-.351-.041-.723-.062-1.116-.062-1.945 0-3.265.828-3.96 2.485v12.313h-2.966V15.329h2.886l.048 2.004.142-.216c.963-1.406 2.295-2.11 3.995-2.11zm7.614.32v17.348h-2.966V15.329h2.966zm-37.03 2.117c-1.197 0-2.201.435-3.014 1.307-.754.808-1.24 1.92-1.46 3.332l-.047.331h8.69v-.224l-.01-.167c-.106-1.427-.509-2.539-1.209-3.337-.726-.828-1.71-1.242-2.95-1.242zm35.57-8.433c.578 0 1.016.165 1.315.497.3.331.45.737.45 1.218s-.15.882-.45 1.203c-.299.32-.737.48-1.314.48-.578 0-1.013-.16-1.307-.48-.294-.321-.44-.722-.44-1.203 0-.48.146-.887.44-1.218.294-.332.73-.497 1.307-.497z"/>
        <g>
            <path fill="#D1D1D2" d="M19.853 18.087l2.489 16.371c-1.52.43-3.125.66-4.783.66-4.143 0-7.95-1.435-10.952-3.834l13.246-13.197z" transform="translate(0 5.5)"/>
            <path fill="#FFF" d="M17.559 0c9.697 0 17.558 7.861 17.558 17.559 0 6.762-3.823 12.632-9.425 15.565l-2.848-18.74-.037-.188c-.184-.745-.76-1.332-1.5-1.53l-.19-.041L2.035 9.347C4.981 3.787 10.828 0 17.56 0z" transform="translate(0 5.5)"/>
            <path fill="#A4A4A5" d="M.687 12.678l16.737 2.874-13.33 13.276C1.537 25.778 0 21.848 0 17.558c0-1.693.24-3.33.687-4.88z" transform="translate(0 5.5)"/>
        </g>
    </g>
</svg>
