<svg xmlns="http://www.w3.org/2000/svg" width="130" height="32" viewBox="0 0 130 32">
    <g fill="none">
        <path fill="#FFF" d="M62.941 6.915c1.64 0 2.915.54 3.825 1.62.856 1.018 1.31 2.448 1.36 4.29l.004.351v.898h-8.547l.005.124c.051 1.187.413 2.15 1.086 2.89.695.766 1.58 1.149 2.652 1.149.762 0 1.407-.156 1.936-.467.453-.266.857-.607 1.213-1.022l.174-.214 1.318 1.026-.06.09c-1.056 1.565-2.622 2.347-4.697 2.347-1.71 0-3.102-.561-4.175-1.684-1.01-1.058-1.544-2.45-1.603-4.179l-.006-.328v-.397l.001-.155c.02-1.189.258-2.254.716-3.197.478-.983 1.147-1.753 2.006-2.308.859-.556 1.79-.834 2.792-.834zm10.867-2.822v3.055h2.355v1.667h-2.355v7.824l.004.184c.023.414.127.732.31.953.21.253.568.38 1.073.38.249 0 .59-.048 1.026-.14v1.748l-.338.084c-.45.1-.889.15-1.318.15-.963 0-1.69-.292-2.18-.875-.49-.583-.735-1.41-.735-2.484V8.815h-2.297V7.148h2.297V4.093h2.158zm24.564 2.822c1.415 0 2.59.423 3.527 1.27.937.848 1.436 1.948 1.498 3.3h-2.04l-.026-.24c-.1-.708-.4-1.299-.901-1.77-.556-.525-1.242-.788-2.058-.788-1.096 0-1.945.395-2.548 1.184-.602.789-.904 1.93-.904 3.422v.408l.005.306c.04 1.306.338 2.323.893 3.052.599.785 1.454 1.178 2.566 1.178.77 0 1.441-.233 2.017-.7.575-.466.894-1.05.956-1.749h2.04l-.02.24c-.076.636-.318 1.244-.726 1.824-.459.653-1.07 1.174-1.836 1.562-.766.39-1.576.583-2.431.583-1.718 0-3.085-.573-4.099-1.72-1.014-1.146-1.522-2.714-1.522-4.704v-.362l.007-.364c.04-1.081.264-2.052.67-2.912.45-.956 1.098-1.699 1.941-2.227.843-.529 1.84-.793 2.99-.793zm12.277 0c1.43 0 2.59.37 3.48 1.108.89.738 1.335 1.682 1.335 2.833h-2.168l-.008-.175c-.045-.517-.293-.968-.744-1.353-.502-.427-1.133-.64-1.895-.64-.785 0-1.4.17-1.843.512-.443.342-.664.79-.664 1.341 0 .52.206.913.618 1.178.412.264 1.156.517 2.233.758 1.076.24 1.949.528 2.617.863.669.334 1.164.736 1.487 1.206.323.47.484 1.044.484 1.72 0 1.127-.45 2.031-1.353 2.711-.901.68-2.071 1.02-3.51 1.02-1.01 0-1.904-.178-2.681-.536-.777-.358-1.386-.857-1.825-1.498-.44-.642-.659-1.335-.659-2.082h2.157l.017.194c.077.632.361 1.141.852 1.526.54.424 1.254.636 2.14.636.816 0 1.47-.165 1.964-.496.494-.33.74-.771.74-1.323 0-.583-.219-1.036-.658-1.359-.44-.322-1.205-.6-2.297-.833-1.092-.234-1.959-.513-2.6-.84-.641-.326-1.116-.715-1.423-1.166-.307-.45-.46-.987-.46-1.609 0-1.034.437-1.908 1.312-2.623.874-.716 1.991-1.073 3.352-1.073zm-60.149 0c2.767 0 4.174 1.465 4.221 4.396v8.453h-2.157V11.44l-.005-.24c-.034-.782-.238-1.377-.613-1.783-.412-.447-1.104-.67-2.075-.67-.801 0-1.466.239-1.994.717-.529.478-.836 1.12-.921 1.93v8.371h-2.17v-8.267l-.003-.2c-.064-1.701-.96-2.552-2.69-2.552-1.414 0-2.382.603-2.903 1.808v9.211h-2.157V7.148h2.04l.059 1.4.166-.187c.907-.964 2.099-1.446 3.577-1.446 1.764 0 2.965.676 3.602 2.029.42-.607.966-1.096 1.639-1.47.672-.373 1.467-.56 2.384-.56zm33.834 0c.42 0 .739.054.956.163v2.006l-.25-.036c-.255-.03-.525-.046-.81-.046-1.415 0-2.375.602-2.88 1.807v8.955h-2.158V7.148h2.099l.035 1.458.128-.194c.698-.998 1.658-1.497 2.88-1.497zm5.538.233v12.616h-2.157V7.148h2.157zm-26.93 1.54c-.871 0-1.602.316-2.193.95-.541.58-.893 1.375-1.056 2.383l-.04.28h6.32v-.162l-.008-.121c-.076-1.038-.37-1.847-.878-2.427-.529-.603-1.244-.904-2.146-.904zM88.81 2.553c.42 0 .738.12.956.361.217.241.326.537.326.887s-.109.64-.326.874c-.218.233-.537.35-.956.35-.42 0-.737-.117-.95-.35-.214-.233-.321-.525-.321-.874 0-.35.107-.646.32-.887.214-.24.53-.361.95-.361z" transform="translate(0 4)"/>
        <g>
            <path fill="#D1D1D2" d="M14.439 13.154l1.81 11.906c-1.106.313-2.273.48-3.48.48-3.012 0-5.78-1.043-7.964-2.788l9.634-9.598z" transform="translate(0 4)"/>
            <path fill="#FFF" d="M12.77 0c7.053 0 12.77 5.717 12.77 12.77 0 4.918-2.78 9.187-6.855 11.32l-2.07-13.628-.028-.138c-.134-.541-.553-.968-1.091-1.112l-.138-.03L1.48 6.798C3.623 2.754 7.875 0 12.77 0z" transform="translate(0 4)"/>
            <path fill="#A4A4A5" d="M.5 9.22l12.172 2.09-9.695 9.656C1.119 18.748 0 15.89 0 12.77c0-1.232.174-2.423.5-3.55z" transform="translate(0 4)"/>
        </g>
    </g>
</svg>
