<svg xmlns="http://www.w3.org/2000/svg" width="180" height="44" viewBox="0 0 180 44">
    <g fill="none" fill-rule="evenodd">
        <g fill-rule="nonzero">
            <g>
                <g>
                    <g>
                        <path fill="#434343" d="M19.992 18.214l2.506 16.485c-1.531.432-3.147.664-4.817.664-4.17 0-8.005-1.444-11.028-3.86l13.339-13.29z" transform="translate(-630 -193) translate(630 193) translate(0 5.375)"/>
                        <path fill="#161616" d="M17.681 0c9.766 0 17.682 7.916 17.682 17.681 0 6.81-3.85 12.721-9.492 15.675l-2.867-18.87-.038-.191c-.185-.75-.765-1.34-1.51-1.54l-.19-.042-19.217-3.3C5.016 3.813 10.903 0 17.68 0z" transform="translate(-630 -193) translate(630 193) translate(0 5.375)"/>
                        <path fill="#727272" d="M.692 12.767l16.853 2.894L4.122 29.03C1.549 25.958 0 22 0 17.68c0-1.705.241-3.354.692-4.914z" transform="translate(-630 -193) translate(630 193) translate(0 5.375)"/>
                    </g>
                </g>
                <path fill="#151515" d="M87.15 14.966c2.27 0 4.036.748 5.295 2.244 1.2 1.425 1.828 3.436 1.885 6.032l.004.394v1.243H82.5l.006.17c.071 1.644.572 2.978 1.504 4.003.963 1.06 2.187 1.59 3.672 1.59 1.055 0 1.949-.215 2.68-.645.64-.377 1.211-.86 1.712-1.452l.21-.26 1.824 1.421-.082.124c-1.463 2.167-3.632 3.25-6.505 3.25-2.368 0-4.294-.777-5.78-2.333-1.414-1.48-2.155-3.438-2.223-5.871l-.005-.369v-.548l.002-.216c.026-1.646.357-3.121.991-4.426.662-1.362 1.588-2.427 2.777-3.197 1.19-.77 2.478-1.154 3.867-1.154zm15.045-3.907v4.23h3.261v2.309h-3.261V28.43l.005.226c.03.588.173 1.037.43 1.348.292.35.787.524 1.486.524.345 0 .818-.064 1.421-.193v2.421l-.391.1c-.649.149-1.283.223-1.902.223-1.334 0-2.34-.403-3.019-1.21-.678-.808-1.017-1.954-1.017-3.44V17.599h-3.18v-2.31h3.18V11.06h2.987zm34.012 3.907c1.96 0 3.587.587 4.884 1.76 1.297 1.173 1.988 2.696 2.075 4.569h-2.826l-.026-.258c-.128-1.014-.547-1.857-1.257-2.527-.77-.727-1.72-1.09-2.85-1.09-1.517 0-2.693.546-3.527 1.639-.835 1.092-1.252 2.672-1.252 4.738v.565l.005.372c.049 1.833.462 3.259 1.239 4.278.828 1.087 2.012 1.63 3.551 1.63 1.066 0 1.997-.322 2.793-.968.797-.646 1.238-1.453 1.324-2.422h2.826l-.022.272c-.097.902-.434 1.764-1.012 2.586-.635.904-1.482 1.625-2.542 2.163-1.06.538-2.183.807-3.367.807-2.378 0-4.27-.793-5.675-2.381-1.404-1.588-2.106-3.759-2.106-6.514v-.5l.006-.422c.048-1.53.358-2.902.93-4.116.624-1.323 1.52-2.351 2.688-3.083 1.168-.732 2.548-1.098 4.141-1.098zm16.999 0c1.98 0 3.587.511 4.82 1.534 1.232 1.022 1.848 2.33 1.848 3.923h-3.003l-.007-.202c-.053-.733-.398-1.37-1.034-1.913-.695-.592-1.57-.888-2.624-.888-1.087 0-1.937.237-2.55.71-.614.474-.921 1.093-.921 1.857 0 .721.285 1.265.856 1.63.57.367 1.6.716 3.091 1.05 1.491.334 2.7.732 3.625 1.195.925.463 1.612 1.02 2.058 1.67.447.652.67 1.446.67 2.382 0 1.56-.624 2.812-1.873 3.754-1.248.941-2.868 1.412-4.86 1.412-1.398 0-2.636-.247-3.712-.742-1.077-.495-1.919-1.187-2.527-2.075-.608-.888-.912-1.848-.912-2.882h2.987l.018.228c.1.894.494 1.612 1.184 2.154.748.586 1.736.88 2.963.88 1.13 0 2.037-.23 2.72-.687.684-.457 1.025-1.068 1.025-1.832 0-.807-.304-1.434-.912-1.881-.608-.447-1.668-.831-3.18-1.154-1.512-.323-2.713-.71-3.6-1.163-.888-.452-1.545-.99-1.97-1.614-.425-.624-.638-1.367-.638-2.228 0-1.432.606-2.642 1.816-3.633 1.211-.99 2.758-1.485 4.642-1.485zm-83.283 0c3.832 0 5.78 2.029 5.845 6.087v11.704H72.78V21.23l-.005-.282c-.04-1.108-.324-1.948-.85-2.519-.571-.619-1.53-.928-2.874-.928-1.11 0-2.03.33-2.761.993-.732.662-1.157 1.552-1.276 2.672v11.591h-3.003V21.311l-.003-.235c-.075-2.383-1.317-3.575-3.726-3.575-1.959 0-3.299.834-4.02 2.502v12.754h-2.987V15.29h2.826l.08 1.937.186-.21c1.26-1.367 2.926-2.05 4.997-2.05 2.443 0 4.106.936 4.988 2.81.582-.84 1.338-1.518 2.269-2.035.93-.517 2.031-.775 3.301-.775zm46.848 0c.58 0 1.022.075 1.323.226v2.777l-.346-.05c-.353-.042-.727-.063-1.123-.063-1.959 0-3.288.834-3.987 2.502v12.4h-2.987v-17.47h2.906l.048 2.019.143-.218c.97-1.415 2.31-2.123 4.023-2.123zm7.667.323v17.468h-2.987V15.29h2.987zM87.15 17.42c-1.206 0-2.217.439-3.035 1.316-.76.814-1.25 1.933-1.472 3.355l-.046.334h8.75v-.226l-.01-.167c-.107-1.437-.512-2.558-1.217-3.36-.732-.835-1.722-1.252-2.97-1.252zm35.819-8.492c.58 0 1.022.167 1.323.5.302.334.452.743.452 1.227 0 .485-.15.888-.452 1.211-.301.323-.742.485-1.323.485-.582 0-1.02-.162-1.316-.485-.296-.323-.444-.726-.444-1.21 0-.485.148-.894.444-1.228.296-.333.734-.5 1.316-.5z" transform="translate(-630 -193) translate(630 193)"/>
            </g>
        </g>
    </g>
</svg>
