<svg xmlns="http://www.w3.org/2000/svg" width="32" height="32" viewBox="0 0 32 32">
    <g fill="none" fill-rule="evenodd">
        <g fill-rule="nonzero">
            <path fill="#D1D1D2" d="M14.439 13.154l1.81 11.906c-1.106.313-2.273.48-3.48.48-3.012 0-5.78-1.043-7.964-2.788l9.634-9.598z" transform="translate(3 3)"/>
            <path fill="#FFF" d="M12.77 0c7.053 0 12.77 5.717 12.77 12.77 0 4.918-2.78 9.187-6.855 11.32l-2.07-13.628-.028-.138c-.134-.541-.553-.968-1.091-1.112l-.138-.03L1.48 6.798C3.623 2.754 7.875 0 12.77 0z" transform="translate(3 3)"/>
            <path fill="#A4A4A5" d="M.5 9.22l12.172 2.09-9.695 9.656C1.119 18.748 0 15.89 0 12.77c0-1.232.174-2.423.5-3.55z" transform="translate(3 3)"/>
        </g>
    </g>
</svg>
