<?xml version="1.0" standalone="no"?>
<!DOCTYPE svg PUBLIC "-//W3C//DTD SVG 20010904//EN"
 "http://www.w3.org/TR/2001/REC-SVG-20010904/DTD/svg10.dtd">
<svg version="1.0" xmlns="http://www.w3.org/2000/svg"
 width="700.000000pt" height="700.000000pt" viewBox="0 0 700.000000 700.000000"
 preserveAspectRatio="xMidYMid meet">
<metadata>
Created by potrace 1.11, written by Peter Selinger 2001-2013
</metadata>
<g transform="translate(0.000000,700.000000) scale(0.100000,-0.100000)"
fill="#000000" stroke="none">
<path d="M3218 6995 c-2 -1 -41 -6 -88 -9 -47 -4 -112 -11 -145 -16 -33 -5
-77 -11 -98 -14 -258 -39 -652 -157 -862 -259 -16 -8 -61 -30 -100 -48 -171
-81 -394 -219 -569 -352 -144 -109 -194 -154 -361 -321 -217 -218 -404 -463
-543 -711 -19 -33 -39 -66 -44 -73 -6 -7 -9 -15 -6 -18 3 -2 81 -18 174 -34
93 -16 207 -36 254 -44 47 -8 99 -17 115 -20 38 -7 428 -73 475 -81 19 -3 58
-10 85 -15 28 -5 64 -12 80 -14 48 -8 96 -16 155 -26 30 -5 71 -12 90 -15 19
-3 46 -8 60 -10 14 -3 36 -8 50 -10 14 -3 45 -8 70 -10 25 -3 52 -8 60 -10 8
-2 29 -7 45 -9 17 -3 95 -16 175 -30 80 -14 197 -34 260 -45 63 -11 130 -22
148 -25 17 -3 47 -8 65 -11 17 -3 55 -10 82 -15 28 -5 64 -12 80 -14 60 -10
400 -68 410 -70 6 -2 33 -6 60 -10 80 -12 89 -14 115 -20 14 -3 41 -8 60 -11
19 -2 49 -7 65 -10 17 -3 44 -7 60 -10 17 -3 41 -7 55 -10 14 -3 54 -10 90
-16 36 -5 79 -12 95 -15 249 -43 288 -54 354 -98 65 -44 106 -89 140 -156 35
-68 37 -75 71 -305 12 -77 23 -149 24 -160 2 -11 6 -40 10 -65 4 -25 9 -56 11
-70 6 -34 13 -76 20 -130 3 -25 10 -70 15 -100 6 -30 12 -75 15 -100 6 -45 8
-60 25 -160 5 -30 12 -75 15 -100 3 -25 10 -70 15 -100 6 -30 12 -75 16 -100
3 -25 9 -70 15 -100 5 -30 11 -75 14 -100 3 -25 8 -57 11 -72 3 -15 7 -42 9
-60 3 -18 7 -44 9 -58 3 -14 8 -45 11 -70 6 -45 21 -142 29 -190 3 -14 12 -75
21 -136 8 -60 17 -121 20 -135 2 -13 11 -73 20 -134 9 -60 22 -148 30 -195 8
-47 17 -105 20 -130 3 -25 10 -70 15 -100 5 -30 12 -75 15 -100 3 -25 10 -71
16 -103 6 -33 12 -73 14 -90 6 -50 14 -107 25 -167 5 -30 12 -75 15 -100 3
-25 11 -74 17 -110 5 -36 12 -81 15 -100 8 -63 23 -143 27 -148 14 -13 471
276 516 327 3 3 28 24 55 46 28 22 66 53 85 70 63 53 325 319 370 375 25 30
47 57 51 60 3 3 44 57 91 120 255 345 451 750 557 1154 34 126 77 342 86 429
4 32 8 68 11 80 17 85 23 440 11 617 -12 174 -22 250 -62 464 -13 68 -76 301
-105 387 -317 937 -1006 1683 -1916 2074 -131 57 -311 120 -424 150 -87 23
-228 56 -258 61 -20 3 -46 8 -56 11 -11 3 -34 7 -50 9 -17 1 -44 5 -61 8 -16
2 -55 8 -85 11 -30 4 -68 9 -85 11 -33 5 -542 14 -547 9z"/>
<path d="M130 4495 c-9 -24 -30 -99 -35 -126 -2 -9 -12 -59 -23 -110 -11 -52
-23 -112 -26 -134 -3 -22 -8 -53 -10 -70 -38 -249 -43 -678 -10 -914 17 -128
28 -192 55 -316 17 -77 34 -153 40 -170 40 -133 82 -259 99 -305 12 -30 28
-73 36 -94 21 -57 155 -329 199 -406 64 -109 165 -260 245 -364 99 -130 99
-130 105 -125 2 2 590 587 1306 1299 l1301 1295 -63 12 c-35 6 -84 14 -109 18
-25 3 -52 8 -60 10 -16 5 -28 7 -170 30 -52 8 -104 17 -115 19 -11 2 -54 10
-95 17 -41 7 -77 13 -80 14 -3 1 -27 5 -55 9 -27 5 -135 23 -240 41 -104 18
-207 36 -227 39 -21 3 -75 12 -120 20 -46 8 -96 17 -113 20 -16 3 -111 19
-210 36 -99 17 -193 33 -210 36 -16 3 -43 7 -58 9 -16 2 -40 6 -55 9 -37 8
-93 18 -117 21 -11 2 -58 10 -105 18 -47 9 -98 18 -115 20 -16 3 -127 21 -245
42 -118 20 -224 38 -235 40 -11 1 -58 10 -105 18 -47 9 -101 18 -120 22 -19 3
-84 14 -143 24 l-109 18 -8 -22z"/>
<path d="M3655 3229 c-121 -121 -702 -701 -1291 -1288 l-1071 -1067 27 -20
c15 -10 53 -38 83 -61 63 -48 263 -183 272 -183 3 0 24 -12 46 -26 70 -44 309
-160 419 -205 243 -97 513 -174 710 -204 25 -4 52 -8 60 -10 8 -2 40 -6 70
-10 30 -4 66 -9 80 -11 135 -22 685 -21 753 1 7 2 39 6 72 9 33 3 71 8 85 10
14 3 52 10 85 15 83 15 104 19 123 25 9 3 29 7 43 10 14 2 54 12 88 22 l63 17
-6 51 c-4 28 -11 78 -16 111 -5 33 -12 78 -15 100 -4 22 -8 51 -10 64 -3 14
-12 75 -20 135 -9 61 -18 122 -21 136 -11 63 -24 149 -29 190 -3 25 -9 68 -14
95 -6 28 -12 68 -15 90 -10 80 -27 190 -31 205 -2 8 -6 38 -10 65 -3 28 -12
91 -20 140 -8 50 -17 108 -20 130 -3 22 -8 54 -10 70 -3 17 -7 41 -9 55 -2 14
-7 41 -10 60 -3 19 -8 53 -11 75 -3 22 -7 51 -10 65 -3 14 -7 41 -9 60 -3 19
-18 123 -35 230 -31 198 -38 247 -47 310 -2 19 -9 64 -15 100 -6 36 -12 80
-15 99 -2 19 -6 46 -9 60 -2 14 -9 55 -14 91 -5 36 -21 140 -35 232 -14 92
-26 169 -26 172 0 17 -35 -14 -235 -215z"/>
</g>
</svg>
